<svg xmlns="http://www.w3.org/2000/svg" viewBox="0 0 365.76 184.27"><defs><style>.cls-1{opacity:0.15;}.cls-2{fill:#1d1d1b;}.cls-3{fill:#189cd9;}.cls-4{fill:#ffda00;}.cls-5{fill:#008e39;}.cls-6{fill:#e40d7e;}</style></defs><title>Risorsa 4</title><g id="Livello_2" data-name="Livello 2"><g id="Livello_1-2" data-name="Livello 1"><path class="cls-1" d="M121.59,58.7c-.23-.51-4.68-6.58-4.87-7.68-.12-.68.59-1.32.68-2,.24-1.67-1.3-2.34-2.72-2.34.14-1.29.16-3.46-1.05-4.29s-3.25.3-3.31-1.83a3.55,3.55,0,0,1,.06-.79v0a18.67,18.67,0,0,1,1.19-3.32s0,0,0,0a7.34,7.34,0,0,0,.46-1.57,4.33,4.33,0,0,0,0-1.61,2.79,2.79,0,0,0-1.25-1.81l-.05,0a6.1,6.1,0,0,0-1.91-.79c-3.09-.82-6.58-.89-9.59-2l-.27-.1c-.36-.14-.71-.29-1-.46l0,0A9.3,9.3,0,0,1,95,25.74c-1.34-1.6-2.26-3.51-3.58-5.13a47,47,0,0,0-6.72-6.51,20.7,20.7,0,0,0-12.1-4.78H72c-1.45,0-2.93.27-4.37.44h0l-.67.07c-1.56.16-4,.86-5.54.55l-.2,0L61,10.29a10.34,10.34,0,0,1-1.37-.69h0q-.26-.13-.51-.24a16.71,16.71,0,0,0-4.64-.93c-.22,0-.45,0-.68,0h-.89c-.46,0-.93,0-1.42.07-.25,0-.49,0-.75.07l-.57.06C44,9.38,36.65,12.43,34.35,18a9,9,0,0,0-.63,2.33l-.09.05c-1.73.93-3,1.9-4.87,2.25a1.57,1.57,0,0,1-.3.05l-.36.05h-.34c-2.16.14-4.19-.54-6.27-1a11.61,11.61,0,0,0-1.5-.23h-.17a2.63,2.63,0,0,0-2.62,1.26c-.87,1.41-.79,3.47-.6,5a5.86,5.86,0,0,1-1.59.63l-.22,0h0a19.35,19.35,0,0,0-2.39-.08s0,0,0,0c-1.16.26-1.62,1.65-1.92,2.68h-.07a3.62,3.62,0,0,0-.54,0c-1.57.07-1.58,1.6-2,2.95a4.18,4.18,0,0,1-.31.76h0a2.31,2.31,0,0,1-.76.86c-1.81,1.19-4,.59-5.43,2.63a6.8,6.8,0,0,0-.78,1.45C-.89,43.37.75,48,2.77,51.82l0,0c.9,1.71,1.87,3.26,2.69,4.51a68.31,68.31,0,0,0,7.89,9.74c.4.43.81.85,1.21,1.27a36.45,36.45,0,0,0,7.8,6.38c4.13,2.38,8.45,4.49,12.67,6.73s8.76,4.17,12.74,6.77c5.09,3.31,7.57,8.69,8.84,14.48l0,0c.5,2.14.64,6,.89,8.2.09.81,1.69,18.51,1.48,21.85-.09,1.42-.23,2.85-.41,4.27-.08.64-.17,1.27-.26,1.9a0,0,0,0,0,0,0c-.44,2.92-1,5.82-1.69,8.65a.13.13,0,0,0,0,.06c-1,4.45-2.23,8.75-3.25,12.74l-.18.7h0c-1.3,5.1-2.28,9.67-2.23,13.35,0,2,.11,3.81.25,5.55l1.88,0A70.63,70.63,0,0,1,55,159.3c1.8-7.17,5.87-17.72,5.81-27.24,0-1.73-.15-4.46-.36-7.55-.38-5.54-.95-12.22-1.28-16.24a.75.75,0,0,1,0-.15,21.42,21.42,0,0,1,1-5.63A37.74,37.74,0,0,1,65.68,92.3,19.15,19.15,0,0,1,72,87.07c2.58-1.53,5.11-3.19,7.76-4.58,5.41-2.83,11.3-4.45,17.08-6.29a100.86,100.86,0,0,0,17.76-7.43c2.79-1.51,5.77-3.16,7.39-6C122.84,61.23,122.29,60.16,121.59,58.7Z"/><path d="M129.39,60.37c-.24-.51-4.69-6.57-4.88-7.68-.11-.68.6-1.31.69-2,.23-1.67-1.3-2.33-2.73-2.33.15-1.29.16-3.47-1-4.3s-3.26.3-3.32-1.83a5.35,5.35,0,0,1,.06-.79v0a17.66,17.66,0,0,1,1.19-3.32v0a7.38,7.38,0,0,0,.47-1.57,4.51,4.51,0,0,0,0-1.6,2.79,2.79,0,0,0-1.26-1.82l0,0a6.46,6.46,0,0,0-1.91-.79c-3.09-.82-6.58-.89-9.6-2l-.27-.11c-.35-.14-.7-.29-1-.46l0,0a9.24,9.24,0,0,1-2.92-2.31c-1.33-1.61-2.25-3.52-3.58-5.13a47,47,0,0,0-6.71-6.52A20.75,20.75,0,0,0,80.36,11h-.59a43.4,43.4,0,0,0-4.37.44h0l-.67.07c-1.56.15-4,.85-5.54.55L69,12l-.16,0a11.2,11.2,0,0,1-1.38-.7h0a4.38,4.38,0,0,0-.5-.23,17.16,17.16,0,0,0-4.65-.94l-.67,0h-.9c-.45,0-.93,0-1.42.07l-.74.07-.57.07c-6.17.78-13.55,3.83-15.84,9.36A9.21,9.21,0,0,0,41.51,22l-.08,0c-1.73.94-3,1.9-4.88,2.26l-.3.05-.35,0h-.34c-2.16.14-4.19-.54-6.28-1a13.29,13.29,0,0,0-1.5-.23h-.16A2.66,2.66,0,0,0,25,24.45c-.86,1.42-.79,3.48-.6,5.06a5.32,5.32,0,0,1-1.59.62l-.22,0h0a21.7,21.7,0,0,0-2.4-.08h0c-1.17.26-1.62,1.66-1.92,2.69h-.08a2.55,2.55,0,0,0-.54,0c-1.56.06-1.58,1.6-2,2.95a4.51,4.51,0,0,1-.3.75h0a2.32,2.32,0,0,1-.76.86c-1.82,1.19-4,.59-5.44,2.63a6.59,6.59,0,0,0-.77,1.46c-1.44,3.64.2,8.25,2.23,12.09a.14.14,0,0,0,0,.06c.9,1.7,1.88,3.26,2.69,4.5a68.44,68.44,0,0,0,7.89,9.74c.41.43.81.86,1.22,1.27a36.15,36.15,0,0,0,7.79,6.39c4.14,2.38,8.46,4.49,12.68,6.73s8.75,4.16,12.74,6.76c5.09,3.32,7.57,8.7,8.83,14.48,0,0,0,0,0,0,.5,2.13.64,6,.89,8.19.1.81,1.7,18.52,1.48,21.85-.09,1.43-.22,2.85-.4,4.28q-.12.95-.27,1.89v0c-.44,2.92-1,5.81-1.69,8.64a.13.13,0,0,0,0,.06c-1,4.45-2.23,8.76-3.26,12.74-.06.24-.12.47-.17.7h0c-1.29,5.11-2.27,9.67-2.22,13.35,0,2,.11,3.82.24,5.55l1.88,0A70.56,70.56,0,0,1,62.74,161c1.8-7.17,5.88-17.73,5.82-27.25,0-1.72-.16-4.46-.37-7.55-.37-5.54-.94-12.21-1.28-16.24v-.15a21.5,21.5,0,0,1,1-5.63A37.85,37.85,0,0,1,73.47,94a19.41,19.41,0,0,1,6.32-5.23c2.58-1.52,5.1-3.18,7.76-4.58,5.4-2.83,11.29-4.45,17.08-6.28a100.9,100.9,0,0,0,17.76-7.44c2.78-1.51,5.76-3.16,7.38-6C130.64,62.9,130.08,61.83,129.39,60.37ZM64.73,102.06a28.54,28.54,0,0,0-4-9.48c-1.28-2-3.24-3.2-5-4.7-3.83-3.22-8.25-5-12.7-7.16-2.37-1.14-4.62-2.44-7.05-3.5a40.78,40.78,0,0,1-8.74-4.85A42.86,42.86,0,0,1,20,64.94c-.45-.57-1-1.18-1.46-1.81a24.34,24.34,0,0,1-3.1-4.61,8.93,8.93,0,0,1-.61-1.73,1.16,1.16,0,0,1,0-.18c.3.45.59.93.87,1.41h0a16.67,16.67,0,0,0,1.87,2.78,4.52,4.52,0,0,0,2.78,1.57h.08c-4-6.3-5.73-10.87-6.23-14.17a.43.43,0,0,0,0-.11c.22.23.42.47.62.72,1.18,1.48,2.14,3.24,3.36,4.67a10.14,10.14,0,0,0,1,1l.13.11c-.28-.62-.56-1.25-.85-1.88l.2-.11.05,0c1.31,1.86,2.7,3.7,3.9,5.63.1.15.19.29.28.45.28.46.33.4.21,0-.29-1-1.58-4.31-2.7-7l-1-2.36a34.29,34.29,0,0,1-2-5.15c-.31-1.21.15-1.9.77-2.94a.21.21,0,0,0,0-.06c.31.43.61.87.89,1.31l.07.12V38.89l1.2.39.08,0c-.09-.7-.16-1.26-.24-1.84v0c2.11.55,2.41,4.74,2.87,6.51a.24.24,0,0,0,0,.08c.65-.8-.07-1.75-.24-2.57a3.36,3.36,0,0,1,.44-2.78l0-.07c.55,1.58,1,3.22,1.57,4.83l.24.69A24.49,24.49,0,0,0,27.38,49l.23.36A33.89,33.89,0,0,1,24.8,39l0-.32c.4,1.23.81,2.46,1.21,3.69,0,0,.06-1.84.06-1.84a3.23,3.23,0,0,1,0-.44,1.73,1.73,0,0,1,.25-.91c.09-.13.18-.25.28-.37h0a.62.62,0,0,1-.27-.37c-.08-.35.25-.45.43-.68l0,0a.56.56,0,0,0,.07-.18c.08-.54-.58-1.14-.76-1.6a5,5,0,0,1-.16-2.44,8.51,8.51,0,0,0,0-.88c0-.15,0-.31,0-.47l0-.15c.43.62.65.95,1,1.42l.09.12c0-.62-.06-1-.08-1.57v-.05A.75.75,0,0,1,27,32h0l.15.16h0c1,1.17,1.39,4.19,1.78,5.59,0,0,0,.1.05.14.11-.59.17-.86.24-1.19,0,0,0,0,0-.08.67.9,1.29,1.73.55,2.66.13.15.26.31.38.47a8.85,8.85,0,0,1,.65.95,39.26,39.26,0,0,1,2.24,5.09c.55,1.31,1.06,2.58,1.51,3.86.26.76.49,1.53.69,2.32.1.4.19.81.28,1.22h-.11l-.4,0h-.31l-.4,0c.14.71.27,1.34.4,2-.13.05-1.18-.85-1.25-.84a24.46,24.46,0,0,1-2.46-2.1q.49,1.13,1,2.22c.67,1.38,4.67,10.18,6.14,12s2.8,3.44,4.09,5.24h0l1.14,1.77-2.2-.45a11,11,0,0,0,4.19,5.3l.25.16c2,1.15,3.78,2.66,5.66,4h.07a1,1,0,0,1,.34,0c1,.19,2.57,1.63,3.31,2.11a35.35,35.35,0,0,1,4.5,3.3,10.58,10.58,0,0,1,2.68,3.13,3.9,3.9,0,0,1,.26.64c.46,1.42.36,3.11,1.42,4.27l0,.06s0,0,0,0a14.15,14.15,0,0,1,.62,1.93.08.08,0,0,1,0,0A7.58,7.58,0,0,1,64.73,102.06Zm1-17.06-.06-.35c-.51-3.39-1-6.77-1.53-10,0,.08,0,.16,0,.25h0c0,.27-.09.61-.13.94h-.3q-.23-5.52-.44-11h-.27v9h-.27Q62.32,70.86,62,68l-.15,0v0l-.15,1.63-.06-.13c-1.12-2.33-.68-4.87-1.28-7.27v6.53h-.15q-1-7.53-2.06-15.06h-.08l-.26,0q.67,5.82,1.36,11.62l-.48.07h0c-.68-3.9-1.37-7.79-2.08-11.88a1,1,0,0,0,0,.25c-.42,3,.31,5.77.89,8.54l-.12-.2c-2.19-3.65-1.67-8-3-11.92,0,.06,0,.12,0,.17a29,29,0,0,0-.4,4.23,16.84,16.84,0,0,0,.88,3.61,36.24,36.24,0,0,0,1.15,4c.42,1.06,1.18,1.93,1.62,3a26.11,26.11,0,0,1,1,3.21,3.43,3.43,0,0,0,.29,1.13c.19.3.61.35.77.61.3.53.18,1.7.36,2.32.27.94,1.07,2.13.83,3.1l-.06-.1-1.59-2.89a.25.25,0,0,1,0,.07l-.35.59-.06,0a5.22,5.22,0,0,1-1.66-.93,12.91,12.91,0,0,1-1.43-2.67c-1-1.78-2.12-3.49-3.18-5.23a.81.81,0,0,1,0,.15,5.55,5.55,0,0,0,.78,2.58c.37.58,1.42,1.19,1.51,1.92a.68.68,0,0,1-.09.4,2.34,2.34,0,0,0-.25.46.34.34,0,0,0,0,.1c0,.28.23.42.31.68,0,.1.07.21.11.32.17.45.39.86.6,1.29A7,7,0,0,1,56,73.69a1.71,1.71,0,0,1-.13-.23,33.34,33.34,0,0,0-7.26-8.37l0,0-.31.24c.65,1.2,1.31,2.4,2.1,3.84l-.09,0c-1.69-.34-1.56-1-2.19-2.34-.77-1.67-2.41-3.22-3.35-4.87L43,59c-.87-1.52-1.73-3-2.63-4.53-.65-1.11-1.33-2.21-2-3.31l-.06,0-.3.12c.35,1,.76,2.05,1.22,3.09a50.43,50.43,0,0,0,2.46,4.87c.26.46.53.91.8,1.35.6,1,4.87,5.17,4.8,6.57h0v0a.48.48,0,0,1-.07.2l-.05,0a4.66,4.66,0,0,1-.93-.81h0a13.91,13.91,0,0,1-1-1.35v0c-.28-.38-.55-.76-.81-1.09a30.78,30.78,0,0,1-3-4.17c-.39-.68-.76-1.37-1.12-2.07-.54-1-1-2.1-1.55-3.15v0C38,53.33,37.35,52,36.61,50.62a47.59,47.59,0,0,1-3.48-8.41c-.83-2.58-1.53-5.22-2.24-7.82-.34-1.25-.68-2.5-1.05-3.73l1.37-1.25.06-.05,1.31,3.52h0l.13,0c-.2-1-.41-2-.66-3.19h0l0-.13a5.43,5.43,0,0,0,.79.74,9.34,9.34,0,0,1,1.37,1.22,3.92,3.92,0,0,1,.51.8A8.66,8.66,0,0,1,35,33.38a0,0,0,0,0,0,0,6.45,6.45,0,0,0,.29.91h0A1.16,1.16,0,0,0,36,35H36c-.41-1.39-.81-2.72-1.2-4l.2-.07.07,0,1,2.43h.2V30.79c1.36.53,1.64,1.87,2,3.13a13.69,13.69,0,0,0,2,4.91l0,.05a.86.86,0,0,1,.57-.47,1,1,0,0,1,.7.31l.1.1c-.89-3-2.23-5.82-2.76-8.9l.34-.1.07,0c.68,2.31,1.37,4.62,2.05,6.92h.2a9.92,9.92,0,0,0,0-1.09l0-.23c-.29-2.6-1.61-5.23-1.77-7.9l.31-.07.07,0A42.31,42.31,0,0,0,41.77,33c0,.14.1.28.16.43-.39-2-.77-3.95-1.15-5.93l.23-.06.07,0,1.23,3s0,.08,0,.12c.18-.76.32-1.36.45-1.94h0l.56,0c.11,1,.2,2,.34,3.33h0c0,.05,0,.09,0,.14.31-.69.5-1.09.75-1.64,0,0,0-.07.05-.1l2.53,9.71h0l.42-.08c-.07-.62-.16-1.24-.25-1.86l0-.19c-.36-2.55-.8-5.1-1.13-7.68a8.75,8.75,0,0,1-.27-3.21c.14-.52.59-.9.75-1.4s-.07-1.14.28-1.62l.06-.08.3,2.37h.15c.07-.69.13-1.39.19-2.12,0,0,0-.09,0-.14.85,1.78.27,3.95,1.64,5.54A8.61,8.61,0,0,0,50,35.15l.09.23-.21-2.25.17-.1,0,0,1,1.4a1,1,0,0,0,.08.11V31.37l.22,0h.08C52,34.65,52.49,38,53,41l.09.61c-.14-5.54-.3-11.39-.44-17.24l.38,0h.08c.06.42.13.84.2,1.26h.23c.06-.84.12-1.67.17-2.52l.41,0h.08c.2.93.4,1.86.56,2.57l0,.16,1.82-7h0l.24,0-.64,5.7c0,.1,0,.21,0,.31l.55-1.53h0l.27,0V33.88c.18-2.74.42-6.43.66-10.12h.33v5.89c.79-3.24,1.53-6.27,2.28-9.3v0l.29.05v7.36l.08,0h.08l.9-5.1a0,0,0,0,0,0,0l.22,0c-.11,1.53-.21,3.06-.31,4.59h.17l1.11-8v0l.11,0v9.88l.3,0h.07c.66-2.35.41-4.86,1-7.41l.06-.28c.11,1.88.2,3.76.27,5.63v0c0,1.25.08,2.5.11,3.76a.66.66,0,0,1,0,.14c0,1.84,0,3.67,0,5.52h.43c.22-5.15.43-10.3.66-15.44h.44c.21,6.47.22,13-.16,19.5,0,.55-.07,1.11-.11,1.66l.21-1.91h.28c0,1.82,0,3.6,0,5.37v0c0,1.4-.12,2.79-.28,4.19-.08.64-.16,1.28-.27,1.92a13.2,13.2,0,0,0,0,2.73,7.69,7.69,0,0,1,0,1c0,.2,0,.41-.06.61-.27,1.88-.39,3.79-.56,5.67a58.44,58.44,0,0,0-.37,11.37C65.21,77.16,66,81,65.69,85Zm59.94-17.7c-.8.53-1.6,1-2.41,1.53A79.07,79.07,0,0,1,112,74.37c-2.1.85-4.24,1.63-6.41,2.37h0l-1,.32-3.49,1.13-2.26.69h0a104.41,104.41,0,0,0-10.65,3.66l-.33.14c-.45.2-.88.42-1.31.66-1,.52-1.86,1.14-2.77,1.75-.55.37-1.1.74-1.65,1.09-2.24,1.4-4.49,2.79-6.76,4.13l0-.07a11.6,11.6,0,0,1,.91-1.17,38.33,38.33,0,0,1,3.81-3.62l0,0,5-4.11-.24.14c-1.57.94-3.54,2.52-5.32,2.73v0a4.66,4.66,0,0,0,.45-.51c1.68-2.18,3.6-7,2.94-6.33a49.4,49.4,0,0,1-3.87,3.79l.1-.15c.36-.53.67-1,1-1.5a10.21,10.21,0,0,0,.68-1.41h0c.1-.26.19-.53.27-.82l-.11.16c-.41.54-.93,1.19-1.47,1.85a49.45,49.45,0,0,1-3.75,4.32,4.74,4.74,0,0,0,.29-.64c.37-1,.49-2.17.15-2.06-.13.25-.33.55-.55.9-.82,1.21-2.16,2.93-3.47,4.59-1.13-.19-1.47,1-1.9,1.44A7.88,7.88,0,0,0,69.37,90c-.1.13-.2.25-.28.37a13.29,13.29,0,0,1,1.46-4.46,5.17,5.17,0,0,0,.32-1.2c.29-1.14.59-2.28.88-3.41A16.59,16.59,0,0,1,72.37,78c1.07-2.77,2.32-5.47,3.45-8.22a4.68,4.68,0,0,0,.08-1.46c-.66.4-.77,0-.6-.48.48-1.34,1-2.67,1.56-4,2-4.72,3.87-9.47,6-14.13A14.55,14.55,0,0,0,84.19,45c-.6,1.15-1.29,2.27-1.77,3.46-2.69,6.77-5.33,13.56-8,20.34-.19.49-.69,1.12-.54,1.45.64,1.39-.15,2.59-.71,3.5a24.26,24.26,0,0,0-2.11,5.81c-.65,2.19-1.46,4.33-2.2,6.49l-.44-.13c1.25-11.84,4.95-23,9-34.14-.79,1.72-1.59,3.44-2.38,5.17a8.16,8.16,0,0,1,.28-1.58C76.56,52.23,77.83,49.13,79,46c.78-2.15,2.13-4.15,2-6.58q-2.32,6-4.66,12a40.16,40.16,0,0,1-1.91,4.79c-.44.79-.7,1.36-.26,2.14a6.5,6.5,0,0,0-1,1.37c-.68,1.78-1.35,3.57-1.88,5.4a45.9,45.9,0,0,0-.95,4.52c-.26,1.58-.42,3.19-.67,4.77-.52,3.3-1.25,6.57-1.57,9.88a58.76,58.76,0,0,0-.08,6.64c-.15-.41,0-.94-.16-1.49-.2-.85-.64-1.62-.91-2.44a13,13,0,0,1-.51-3.58v-.12c0-1,0-2-.08-2.9a144.58,144.58,0,0,1-.59-14.71c.14-4.85.85-9.65,1.47-14.45.32-2.49.65-5,1-7.45.3-2.23.34-4.6,1.54-6.56a1.4,1.4,0,0,1,.1-.16c-.1.64-.19,1.28-.29,1.92l-.09.62c.34-1.4,1-2.78.78-4.26a10.41,10.41,0,0,1,.35-4.21,40.32,40.32,0,0,1,3-8.54l.17-.33c-.68,2.41-1.35,4.82-2,7.24l.12,0,.07,0,3-8.15v0l.33.12-2.56,7.45.21.09.07,0,3.25-8.34a0,0,0,0,0,0,0l.32.11q-.92,2.81-1.82,5.59l.25.08.07,0c.23-.64.42-1.36.67-2.05l.09-.27a5.58,5.58,0,0,1,.89-1.63c.35-.42.81-.69,1.14-1.15.45-.62.67-1.38,1.1-2l.14-.19Q77.76,23,76.51,26.8l.25.09.07,0,1.35-3.3v0l.21.09q-2.25,7.59-4.49,15.19l.35.11.07,0c1.25-4,2.47-7.91,3.85-11.81.13-.35.24-.77.35-1.19,0,0,0,0,0,0a8.42,8.42,0,0,1,.38-1.07c.06-.12.13-.25.2-.36A14.88,14.88,0,0,1,80.68,23a17.58,17.58,0,0,0,2.47-4.18l0-.09a8,8,0,0,1,.15,4.34l0,.16c.35-.58.7-1.15,1-1.73l0,0,.3.1c-.83,2.17-1.62,4.3-2.29,6.52,0,.15-.09.3-.13.45l3.08-6.63,0-.11c.22.91.35,1.43.47,1.92v0l.55-.16.08,0c0,1.23-1.09,2.78-1.59,3.9a7.56,7.56,0,0,0-.52,3.4A2.47,2.47,0,0,1,84,32.1l0,.06-.31.45,0,0a4.78,4.78,0,0,0-.59,1,3.67,3.67,0,0,0,.19,3.11l0,.1c.94-2.17,1.82-4.18,2.7-6.2h0l.37.06q-.09.54-.21,1.05v0c-.06.27-.14.52-.21.77,0,0,0,0,0,0-.28.91-.63,1.78-1,2.7l-.09.21q.48-.65.9-1.32c.65-1,1.23-2,1.81-3.09.22-.39.43-.86.67-1.33h0A11.59,11.59,0,0,1,89,28.35a0,0,0,0,0,0,0,3.62,3.62,0,0,1,1.18-1.16l.1-.05c-.18.44-.36.89-.62,1.57l0,.09,2.52-2.2,0,0,.15.12c-.42.74-.84,1.47-1.33,2.31a.05.05,0,0,1,0,0l2.5-1,.1,0L92.3,30.44l.21.17,0,0,2.87-2.33.08-.07c-.1.78-.17,1.28-.24,1.78v0l3.25-1.11.1,0c-.39.59-.72,1.1-1.19,1.8l1.72.27c0,.2-.09.42-.14.64h1.06l-.68,1.61a.59.59,0,0,0,0,.08c.48-.35.94-.71,1.42-1.07l.13-.09A10.79,10.79,0,0,1,99.58,34l0,0c-1.27,1.44-2.81,2.64-4,4.11h0a9.58,9.58,0,0,0-.65.92l-.17.27c-.45.73-.94,1.45-1.43,2.18l-.83,1.24c-.52.79-1,1.59-1.46,2.4-.21.39-.41.78-.59,1.18a.61.61,0,0,0,0,.12c1.73-1.69,3.09-3.72,4.71-5.52a10.36,10.36,0,0,1,2.37-2c.79-.48,1.14-.48,1.63-.29.25.09.55.25,1,.41l0,0,3.59-3.44,0,0,.2.16c-.24.42-.49.83-.74,1.26l3.13.37.23.31L103.68,40l.3.34,0,0L106.78,38l0,0c.07.07.12.14.18.21l-2.82,2.47.34.45,0,0,1.67-.91.13-.07c-1.49,1.84-1.49,1.84-.83,2.48-1.24,2.26-3.44,4.12-5.23,6a56.41,56.41,0,0,1-6.6,5.75c-.66.49-1.33,1-2,1.52a53.36,53.36,0,0,0-7.05,6.24,23.16,23.16,0,0,0-3.28,4.51c.09.08,3-2.91,5.51-5.22.66-.61,1.28-1.17,1.82-1.61a61.49,61.49,0,0,1,7.56-5,55.29,55.29,0,0,0,7.56-5.23c2.4-2.07,4.26-4,7.27-5.2l.08,0c-.26,2.31-3.27,3.55-4.93,4.75-1.81,1.3-.3.4,2.52-.89h0l1.28-.56.1,0-.62,1.1,0,0,1.93-1,.07,0,.13.23-2.35,2.38-.07.07,7.25-3.69.1-.06-2.08,3.54,0,.07,3.83-2.48,0,0,.17.12-.88,1.2.91,1.25c-.35,1.17-.7,2.29-1.08,3.53v0l2.35-1.08.06,0,.22.3c-2,1.6-3.88,3.2-5.78,4.85l-.06.06,3.69-1.53.13,0-1.41,1.38c0,.07.1.15.16.22v0l5.79-2.55a.2.2,0,0,0,.08,0c-.12,1.33.29,2,1.34,2h.16a4.64,4.64,0,0,0,.76-.11l.07,0c0,2.76-2.41,3.74-4.07,5.26.4.43,1.06,1.16,1,1.77s-.88.74-1,1.26c0,0,0,0,0,0l3.84-1.84.11-.06c-.39.6-.62.95-1,1.48a.08.08,0,0,0,0,0l1.27-.51.06,0c.85,1.79-1.1,2-1.53,3.17,0,0,0,0,0,0l2.89-1.4.14-.07A7.75,7.75,0,0,1,125.63,67.3Z"/><path d="M144.62,73c-2.26,3.94-4.74,7.7-7.29,11.41a143.23,143.23,0,0,1-23.2,25.73c-5.4,4.79-10.93,9.43-17.23,13a54,54,0,0,1-10.38,4.58c-.7.23-1.52.5-1.87-.43s.42-1.41,1.19-1.65c9.19-2.87,16.72-8.45,23.89-14.59a153.31,153.31,0,0,0,24-25.41,105.2,105.2,0,0,0,11.31-19.13c1.26-2.79,1.13-5.89,1.47-8.87,1-8.66,1.78-17.35,3.14-26a46.92,46.92,0,0,1,2.56-10.1c.51-1.26.9-2.81,2.7-2.81,1.14,0,2.07,1.41,2.2,3.55a72.51,72.51,0,0,1-.85,16.45,95,95,0,0,1-7.46,24.83,20.85,20.85,0,0,0-1.49,6.48c-1.73,13.43-3.53,26.86-5.56,40.26a7.87,7.87,0,0,0,0,.9c.68-1.15,1.16-2,1.65-2.8a101.47,101.47,0,0,1,13.53-18,8.77,8.77,0,0,1,1.8-1.47,2.14,2.14,0,0,1,3.35,1,17.82,17.82,0,0,1,1.32,4.47,42.7,42.7,0,0,0,1.88,7.06c.41,1.06.73,2.35,2.07,2.49s1.84-1,2.41-1.92a41.07,41.07,0,0,0,4.72-12.47c.56-2.32,1-4.66,1.52-7,.18-.86.23-2,1.45-1.8s.89,1.32.88,2.17c0,4.67-.32,9.35.61,14,.24,1.2.17,3,1.36,3.23,1.35.21,1.84-1.59,2.35-2.73A74.85,74.85,0,0,0,187.08,83a13.56,13.56,0,0,1,.46-1.8c.23-.64.69-1.1,1.43-.87s.8.76.74,1.38c0,.36-.15.71-.19,1.07-.54,5.28-.4,10.49,1.9,15.4,1.09,2.33,2.67,2.68,4.79,1.17a21.93,21.93,0,0,0,5.32-5.63c4.23-6.2,7.37-13,10.68-19.69a7.05,7.05,0,0,0,.38-3.22c.06-14.15,1.61-28.07,6.26-41.53a31.51,31.51,0,0,1,4.21-9A17,17,0,0,1,225.15,18c2.25-2,4.66-1.29,5.29,1.72a20.9,20.9,0,0,1,.06,7.44c-1.33,8.87-4.12,17.35-7.14,25.76-2.37,6.6-5.1,13.05-8,19.45a4,4,0,0,0-.49,1.79,41.33,41.33,0,0,0,2.19,12.67c1.18,3.12,3.34,3.72,6,1.67a22,22,0,0,0,5.59-7.21c2.88-5.35,5.72-10.72,7.47-16.58.24-.82.55-1.75,1.66-1.39s.78,1.3.59,2.11a53.93,53.93,0,0,0-1.44,18.07,20.31,20.31,0,0,0,.39,2.46c.72,3.25,2.81,4.38,5.9,3.21a21.28,21.28,0,0,0,6.48-4.25,2.34,2.34,0,0,0,.63-2,39.92,39.92,0,0,1,3.77-17.67,23,23,0,0,1,4.66-6.75,11.35,11.35,0,0,1,1.19-1c1.4-1,2.93-1.75,4.6-.73s2,2.67,1.82,4.49a24.51,24.51,0,0,1-3.4,9.46A74.71,74.71,0,0,1,253.61,84a2,2,0,0,0-.69,1.81c1,5.46,2.63,10.6,7.17,14.28s10.12,4.6,15.85,4.17c7.72-.59,15.05-3,22.46-5,8-2.18,16-4.18,24.31-4.31a35.52,35.52,0,0,1,12.45,1.54c5.62,2,8.34,6.73,7.09,12.51-.16.75-.28,1.72-1.31,1.62-1.19-.12-.95-1.16-.88-2a22.83,22.83,0,0,0,.16-3.1c-.19-3.38-2.12-5.41-5.06-6.66a24.14,24.14,0,0,0-8.37-1.58c-8.72-.46-17.15,1.21-25.5,3.46-7.47,2-14.84,4.37-22.53,5.5-5.74.85-11.34.48-16.57-2.14-5.87-2.94-9.05-8-10.66-14.25-.74-2.84-.75-2.84-3.17-1.09A18.26,18.26,0,0,1,244,91.2c-4.45,1.63-7.72-.12-8.81-4.73-.89-3.72-.81-7.51-.67-11.72-1,1.91-1.74,3.49-2.54,5a47.14,47.14,0,0,1-5.1,8,12,12,0,0,1-4.16,3.44A5,5,0,0,1,216,89.53a13.1,13.1,0,0,1-2-5c-.43-2.07-.82-4.16-1.23-6.29-.64.32-.71.94-1,1.42a122.22,122.22,0,0,1-8.65,15.49,22.57,22.57,0,0,1-6.17,6.3c-3,1.94-5.68,1.24-7.48-1.87a13.46,13.46,0,0,1-1.48-3.75c-.29-1.25-.53-2.52-.87-4.19a43.67,43.67,0,0,1-3.1,8,8.75,8.75,0,0,1-1.43,2c-1.88,1.88-3.83,1.55-4.94-.85a17.92,17.92,0,0,1-1.28-5.44,4.52,4.52,0,0,0-.54-1.85c-.63,1.71-1.25,3.43-1.9,5.14a25.24,25.24,0,0,1-2.62,5.12c-1,1.53-2.24,2.88-4.22,2.72s-3.05-1.85-3.74-3.57a50.07,50.07,0,0,1-2.24-8.1c-.18-.81-.35-1.62-.58-2.42-.49-1.62-.66-1.67-1.86-.53a80.86,80.86,0,0,0-8.88,10.82,127.29,127.29,0,0,0-8.52,13.94,11.63,11.63,0,0,0-1.26,3.34c-2.94,14.4-6.12,28.73-10.63,42.75a118.8,118.8,0,0,1-7.58,18.57,13.25,13.25,0,0,1-1.06,1.72c-.56.75-1.19,1.62-2.29,1.14s-1-1.5-.9-2.44c.26-1.95.57-3.9.9-5.85,1.39-8.27,4.13-16.18,6.52-24.18A202.4,202.4,0,0,1,137.73,119a12,12,0,0,0,.92-3.45c2.3-13.93,4.13-27.93,6-41.93C144.64,73.45,144.62,73.24,144.62,73ZM215,67.41a133.16,133.16,0,0,0,5.23-12.35c3.4-9.15,6.57-18.37,8.08-28.07a25.73,25.73,0,0,0,.13-6.2c-.05-.56-.13-1.22-.73-1.46s-1,.29-1.45.68a16.24,16.24,0,0,0-3.62,5.57A98.7,98.7,0,0,0,216.11,51,145.32,145.32,0,0,0,215,67.41ZM120.38,179c7.83-15.87,11.76-32.9,15.33-50A260.09,260.09,0,0,0,120.38,179ZM252.87,81.33c4.11-5,7.85-10.22,10.27-16.25a11.16,11.16,0,0,0,.91-4.7c-.08-1.88-.91-2.34-2.49-1.33a8.57,8.57,0,0,0-1.2,1,21,21,0,0,0-4.5,6.66A32,32,0,0,0,252.87,81.33Zm-98.32-59C150.69,33.63,150.4,45.5,149,57.19,153.19,46,155.63,34.43,154.55,22.34Z"/><circle cx="156.75" cy="4.13" r="4.13"/><circle cx="240.97" cy="52.08" r="1.82"/><path class="cls-2" d="M155.79,120.85a1.05,1.05,0,0,1,.46.12.85.85,0,0,1,.36.31l3.79,5.83-.78,0,3.89-5.8a.87.87,0,0,1,.76-.43,1,1,0,0,1,.67.27.87.87,0,0,1,.3.68v9a.92.92,0,0,1-1,.95,1,1,0,0,1-.71-.27.93.93,0,0,1-.27-.68v-7.34l.61.14-3.18,4.85a1.79,1.79,0,0,1-.36.3.93.93,0,0,1-.84,0,1.72,1.72,0,0,1-.35-.3l-3-4.71.41-.83v7.89a1,1,0,0,1-.25.68.87.87,0,0,1-.66.27.84.84,0,0,1-.64-.27,1,1,0,0,1-.24-.68v-9a.92.92,0,0,1,.28-.67A1,1,0,0,1,155.79,120.85Z"/><path class="cls-2" d="M181.52,126.33a6,6,0,0,1-.39,2.18,5.65,5.65,0,0,1-1.1,1.79,5.29,5.29,0,0,1-5.94,1.2,5.13,5.13,0,0,1-1.67-1.2,5.48,5.48,0,0,1-1.1-1.79,6.32,6.32,0,0,1,0-4.37,5.43,5.43,0,0,1,1.1-1.78,5,5,0,0,1,1.67-1.21,5.35,5.35,0,0,1,4.25,0,5.09,5.09,0,0,1,1.69,1.21,5.6,5.6,0,0,1,1.1,1.78A6.08,6.08,0,0,1,181.52,126.33Zm-2,0a4.24,4.24,0,0,0-.42-1.9,3.55,3.55,0,0,0-1.16-1.35,3.12,3.12,0,0,0-3.39,0,3.41,3.41,0,0,0-1.15,1.34,4.61,4.61,0,0,0,0,3.8,3.3,3.3,0,0,0,1.15,1.35,3.12,3.12,0,0,0,3.39,0,3.4,3.4,0,0,0,1.16-1.35A4.23,4.23,0,0,0,179.49,126.33Z"/><path class="cls-2" d="M188.19,120.85a1,1,0,0,1,.46.12.88.88,0,0,1,.37.31l3.79,5.83-.78,0,3.88-5.8a.89.89,0,0,1,.77-.43,1,1,0,0,1,.67.27.89.89,0,0,1,.29.68v9a1,1,0,0,1-.26.68.94.94,0,0,1-.7.27,1,1,0,0,1-.72-.27.93.93,0,0,1-.27-.68v-7.34l.61.14-3.18,4.85a1.49,1.49,0,0,1-.35.3.68.68,0,0,1-.43.1.63.63,0,0,1-.41-.1,1.49,1.49,0,0,1-.35-.3l-3-4.71.4-.83v7.89a1,1,0,0,1-.25.68.91.91,0,0,1-1.29,0,1,1,0,0,1-.25-.68v-9a.93.93,0,0,1,.29-.67A1,1,0,0,1,188.19,120.85Z"/><path class="cls-2" d="M207.39,131.94a6.66,6.66,0,0,1-2-.27,4.66,4.66,0,0,1-1.67-1,1.27,1.27,0,0,1-.31-.39,1,1,0,0,1-.11-.44.89.89,0,0,1,.26-.63.86.86,0,0,1,.65-.27.82.82,0,0,1,.53.19,5,5,0,0,0,1.18.73,3.76,3.76,0,0,0,1.44.25,3,3,0,0,0,1.06-.18,2.15,2.15,0,0,0,.78-.48,1,1,0,0,0,.29-.7,1.14,1.14,0,0,0-.28-.79,2.06,2.06,0,0,0-.85-.56,6.62,6.62,0,0,0-1.47-.35,6.38,6.38,0,0,1-1.48-.38,3.35,3.35,0,0,1-1.07-.66,2.53,2.53,0,0,1-.65-.93,3.3,3.3,0,0,1-.22-1.21,2.85,2.85,0,0,1,.53-1.73,3.28,3.28,0,0,1,1.41-1.09,5,5,0,0,1,2-.38,5.41,5.41,0,0,1,1.88.31,4.28,4.28,0,0,1,1.41.77,1,1,0,0,1,.46.83.87.87,0,0,1-.27.62.82.82,0,0,1-.62.28.68.68,0,0,1-.42-.14,2.65,2.65,0,0,0-.68-.41,6.14,6.14,0,0,0-.88-.33,3.23,3.23,0,0,0-.88-.13,3.16,3.16,0,0,0-1.13.17,1.49,1.49,0,0,0-.69.47,1,1,0,0,0-.24.68,1.12,1.12,0,0,0,.28.77,1.76,1.76,0,0,0,.79.49,9.81,9.81,0,0,0,1.23.32,12.73,12.73,0,0,1,1.64.4,4.07,4.07,0,0,1,1.18.6,2.26,2.26,0,0,1,.7.92,3.4,3.4,0,0,1,.24,1.35,2.76,2.76,0,0,1-.57,1.75,3.53,3.53,0,0,1-1.47,1.12A5,5,0,0,1,207.39,131.94Z"/><path class="cls-2" d="M229.36,123.32,226,131.24a.93.93,0,0,1-.33.46.85.85,0,0,1-.5.16.8.8,0,0,1-.62-.23.89.89,0,0,1-.2-.58,1,1,0,0,1,0-.29l3.89-9.33a1,1,0,0,1,.38-.48.79.79,0,0,1,.55-.14.94.94,0,0,1,.53.16,1,1,0,0,1,.35.46l3.83,9.14a1.07,1.07,0,0,1,.08.37.86.86,0,0,1-.27.67.85.85,0,0,1-.6.25.79.79,0,0,1-.51-.17,1.06,1.06,0,0,1-.35-.47l-3.35-7.81Zm-2.89,6,.86-1.8h4.21l.3,1.8Z"/><path class="cls-2" d="M247.49,120.87a.78.78,0,0,1,.61.25.84.84,0,0,1,.24.62v9.09a.94.94,0,0,1-1,.95,1.23,1.23,0,0,1-.42-.07.72.72,0,0,1-.32-.19l-6.13-7.78.41-.25v7.42a.88.88,0,0,1-.24.63.85.85,0,0,1-.63.24.81.81,0,0,1-.61-.24.88.88,0,0,1-.24-.63v-9.09a.9.9,0,0,1,.28-.68.91.91,0,0,1,.68-.27,1.29,1.29,0,0,1,.45.09.64.64,0,0,1,.34.25l5.94,7.58-.26.19v-7.24a.88.88,0,0,1,.23-.62A.8.8,0,0,1,247.49,120.87Z"/><path class="cls-2" d="M259.25,120.87a4.56,4.56,0,0,1,2,.42,4.11,4.11,0,0,1,1.47,1.18,5.34,5.34,0,0,1,.91,1.74,7.29,7.29,0,0,1,.3,2.12,6.82,6.82,0,0,1-.54,2.75,4.7,4.7,0,0,1-1.59,2,4.29,4.29,0,0,1-2.55.73h-3.72a.91.91,0,0,1-.68-.27.94.94,0,0,1-.28-.68v-9a.94.94,0,0,1,.28-.68.91.91,0,0,1,.68-.27ZM259.1,130a2.49,2.49,0,0,0,1.6-.5,3,3,0,0,0,.92-1.35,5.54,5.54,0,0,0,.28-1.81,5.78,5.78,0,0,0-.16-1.4,3.65,3.65,0,0,0-.51-1.17,2.56,2.56,0,0,0-.87-.8,2.5,2.5,0,0,0-1.26-.3h-2.73l.15-.14v7.64l-.09-.17Z"/><path class="cls-3" d="M278.85,131.78a.94.94,0,0,1-.7-.27,1,1,0,0,1-.26-.68v-9a.9.9,0,0,1,.28-.68,1,1,0,0,1,.72-.27.9.9,0,0,1,.69.27,1,1,0,0,1,.26.68v9a.93.93,0,0,1-.27.68A1,1,0,0,1,278.85,131.78Zm6.74-11a.74.74,0,0,1,.62.31,1,1,0,0,1,.24.61.88.88,0,0,1-.28.61l-6.54,6.25-.07-2.23,5.27-5.19A1.06,1.06,0,0,1,285.59,120.79Zm-.19,11a.82.82,0,0,1-.7-.35l-3.6-4.74,1.42-1.45,3.72,4.92a1,1,0,0,1,.22.64.9.9,0,0,1-.32.71A1.15,1.15,0,0,1,285.4,131.78Z"/><path class="cls-4" d="M294,130.83a.88.88,0,0,1-.3.68,1,1,0,0,1-1.65-.68v-9a.9.9,0,0,1,.28-.68,1,1,0,0,1,.72-.27.93.93,0,0,1,.66.27.91.91,0,0,1,.29.68Z"/><path class="cls-5" d="M304.87,120.87a4.54,4.54,0,0,1,2,.42,4.11,4.11,0,0,1,1.47,1.18,5,5,0,0,1,.91,1.74,7.29,7.29,0,0,1,.3,2.12,6.82,6.82,0,0,1-.54,2.75,4.68,4.68,0,0,1-1.58,2,4.33,4.33,0,0,1-2.55.73h-3.73a.92.92,0,0,1-.95-.95v-9a.92.92,0,0,1,.95-.95Zm-.16,9.12a2.49,2.49,0,0,0,1.6-.5,2.89,2.89,0,0,0,.92-1.35,5.54,5.54,0,0,0,.29-1.81,5.77,5.77,0,0,0-.17-1.4,3.87,3.87,0,0,0-.5-1.17,2.49,2.49,0,0,0-2.14-1.1H302l.16-.14v7.64L302,130Z"/><path class="cls-6" d="M318.74,131.94a6.63,6.63,0,0,1-2-.27,4.66,4.66,0,0,1-1.67-1,1.14,1.14,0,0,1-.31-.39,1,1,0,0,1-.11-.44.85.85,0,0,1,.26-.63.84.84,0,0,1,.64-.27.78.78,0,0,1,.53.19,5.26,5.26,0,0,0,1.18.73,3.79,3.79,0,0,0,1.44.25,3,3,0,0,0,1.06-.18,2,2,0,0,0,.78-.48,1,1,0,0,0,.3-.7,1.14,1.14,0,0,0-.28-.79,2.11,2.11,0,0,0-.86-.56,6.39,6.39,0,0,0-1.46-.35,6.47,6.47,0,0,1-1.49-.38,3.3,3.3,0,0,1-1.06-.66,2.41,2.41,0,0,1-.65-.93,3.11,3.11,0,0,1-.22-1.21,2.84,2.84,0,0,1,.52-1.73,3.28,3.28,0,0,1,1.41-1.09,5,5,0,0,1,2-.38,5.49,5.49,0,0,1,1.88.31,4.38,4.38,0,0,1,1.41.77,1,1,0,0,1,.45.83.91.91,0,0,1-.26.62.84.84,0,0,1-.63.28.73.73,0,0,1-.42-.14,2.58,2.58,0,0,0-.67-.41,6.27,6.27,0,0,0-.89-.33,3.41,3.41,0,0,0-2,0,1.52,1.52,0,0,0-.7.47,1.07,1.07,0,0,0-.23.68,1.11,1.11,0,0,0,.27.77,1.87,1.87,0,0,0,.79.49,9.81,9.81,0,0,0,1.23.32,12.91,12.91,0,0,1,1.65.4,4.21,4.21,0,0,1,1.18.6,2.36,2.36,0,0,1,.7.92,3.59,3.59,0,0,1,.23,1.35,2.82,2.82,0,0,1-.56,1.75,3.59,3.59,0,0,1-1.47,1.12A5,5,0,0,1,318.74,131.94Z"/><path class="cls-2" d="M281.1,76.16a2.52,2.52,0,0,0-1.62-.46,2.67,2.67,0,0,0-.91.16,3,3,0,0,0-.75.41,3.37,3.37,0,0,0-.58.54l-.15.2V73.72a.88.88,0,0,0-.25-.65.92.92,0,0,0-1.28,0,.92.92,0,0,0-.25.65v9.16a.92.92,0,0,0,.25.65.92.92,0,0,0,1.28,0,.88.88,0,0,0,.25-.65V79.09a2,2,0,0,1,.2-.89,1.65,1.65,0,0,1,.6-.63,1.86,1.86,0,0,1,1-.23,1.45,1.45,0,0,1,.89.23,1.28,1.28,0,0,1,.43.63,3.09,3.09,0,0,1,.12.89v3.79a.88.88,0,0,0,.25.65.87.87,0,0,0,.64.26.84.84,0,0,0,.63-.26.89.89,0,0,0,.26-.65V79.09a6.38,6.38,0,0,0-.21-1.7A2.32,2.32,0,0,0,281.1,76.16Z"/><path class="cls-2" d="M294.14,75.7a.87.87,0,0,0-.64.26.9.9,0,0,0-.25.65v0a3.7,3.7,0,0,0-.29-.24,3.56,3.56,0,0,0-2.1-.69,3.28,3.28,0,0,0-1.81.53,3.81,3.81,0,0,0-1.3,1.45,4.63,4.63,0,0,0-.48,2.15,4.58,4.58,0,0,0,.48,2.13,3.68,3.68,0,0,0,1.31,1.45,3.44,3.44,0,0,0,1.86.53,2.75,2.75,0,0,0,1-.19,3.17,3.17,0,0,0,1.29-.86.9.9,0,0,0,1.53.64.92.92,0,0,0,.25-.65V76.61a.89.89,0,0,0-.25-.65A.87.87,0,0,0,294.14,75.7Zm-1.09,5.39a2.23,2.23,0,0,1-.77.89,2,2,0,0,1-1.14.33A2,2,0,0,1,290,82a2.21,2.21,0,0,1-.76-.89,3.12,3.12,0,0,1,0-2.54,2.28,2.28,0,0,1,.76-.89,2,2,0,0,1,1.13-.32,2,2,0,0,1,1.14.32,2.3,2.3,0,0,1,.77.89,3.12,3.12,0,0,1,0,2.54Z"/><path class="cls-2" d="M301.45,73.12a1.21,1.21,0,0,0-.7.16.63.63,0,0,0-.23.58v.29a.7.7,0,0,0,.2.57,1.19,1.19,0,0,0,.72.17,1.22,1.22,0,0,0,.72-.16.66.66,0,0,0,.23-.58v-.29a.67.67,0,0,0-.21-.57A1.2,1.2,0,0,0,301.45,73.12Z"/><path class="cls-2" d="M301.45,75.85a.87.87,0,0,0-.64.26.92.92,0,0,0-.25.65v6.12a.92.92,0,0,0,.25.65.92.92,0,0,0,1.28,0,.88.88,0,0,0,.25-.65V76.76a.88.88,0,0,0-.25-.65A.87.87,0,0,0,301.45,75.85Z"/><path class="cls-2" d="M312.75,76a1.12,1.12,0,0,0-.75-.26,3.12,3.12,0,0,0-.74.09,2.5,2.5,0,0,0-.7.28,2.35,2.35,0,0,0-.59.46,2.32,2.32,0,0,0-.31.44v-.21a.89.89,0,0,0-.26-.65.84.84,0,0,0-.63-.26.87.87,0,0,0-.64.26.88.88,0,0,0-.25.65v6.12a.88.88,0,0,0,.25.65.87.87,0,0,0,.64.26.84.84,0,0,0,.63-.26.89.89,0,0,0,.26-.65V79.37a2.6,2.6,0,0,1,.14-.93,1.92,1.92,0,0,1,.37-.66,1.39,1.39,0,0,1,.5-.39,1.22,1.22,0,0,1,.54-.13,1.25,1.25,0,0,1,.53.11,1.36,1.36,0,0,0,.51.1.8.8,0,0,0,.55-.22.85.85,0,0,0,.25-.7A.73.73,0,0,0,312.75,76Z"/><path class="cls-2" d="M322.83,79.8a3.57,3.57,0,0,0-.85-.43c-.3-.11-.6-.2-.9-.28s-.56-.16-.81-.25a1.7,1.7,0,0,1-.6-.32.71.71,0,0,1-.22-.55.7.7,0,0,1,.19-.54,1,1,0,0,1,.45-.22,2.17,2.17,0,0,1,.48,0,2.35,2.35,0,0,1,1,.19,1.76,1.76,0,0,1,.67.52.81.81,0,0,0,.49.2.74.74,0,0,0,.52-.16.61.61,0,0,0,.28-.56,1,1,0,0,0-.19-.53,2.41,2.41,0,0,0-.77-.65,4.19,4.19,0,0,0-1-.36,4.64,4.64,0,0,0-1-.11,3.46,3.46,0,0,0-1.39.29,2.54,2.54,0,0,0-1.07.8,1.92,1.92,0,0,0-.42,1.26,2.11,2.11,0,0,0,.25,1.08,2,2,0,0,0,.66.69,4,4,0,0,0,.88.42l.94.3c.3.08.57.16.81.25a1.77,1.77,0,0,1,.58.33.65.65,0,0,1,.23.52.74.74,0,0,1-.2.57,1.05,1.05,0,0,1-.47.24l-.49.06a2.8,2.8,0,0,1-1.19-.23,3.45,3.45,0,0,1-.9-.67.87.87,0,0,0-.52-.28.85.85,0,0,0-.51.13.73.73,0,0,0-.38.56.84.84,0,0,0,.13.54A3,3,0,0,0,319,83.63a5.09,5.09,0,0,0,1.75.31,3.42,3.42,0,0,0,1.36-.28,2.67,2.67,0,0,0,1.11-.81,1.91,1.91,0,0,0,.45-1.29,2.14,2.14,0,0,0-.24-1.07A2.06,2.06,0,0,0,322.83,79.8Z"/><path class="cls-2" d="M332.49,77.63a.8.8,0,0,0,.59-.23.75.75,0,0,0,.24-.57.79.79,0,0,0-.24-.59.81.81,0,0,0-.59-.24h-1.06v-1a.89.89,0,0,0-.24-.64.79.79,0,0,0-.63-.26.89.89,0,0,0-.91.9v1H329a.82.82,0,0,0-.59.23.75.75,0,0,0-.24.57.78.78,0,0,0,.24.59.79.79,0,0,0,.59.24h.68v4.1a2.42,2.42,0,0,0,.23,1.14,1.43,1.43,0,0,0,.55.61,1.85,1.85,0,0,0,.71.26,6.21,6.21,0,0,0,.69.05,1.9,1.9,0,0,0,1-.27.78.78,0,0,0,.45-.68.77.77,0,0,0-.17-.53.52.52,0,0,0-.38-.2.74.74,0,0,0-.34.07.88.88,0,0,1-.33.07.73.73,0,0,1-.3-.06.43.43,0,0,1-.22-.2.59.59,0,0,1-.09-.34v-4Z"/><path class="cls-2" d="M344.55,75.85a.87.87,0,0,0-.64.26.88.88,0,0,0-.25.65v3.79a2.28,2.28,0,0,1-.19,1,1.46,1.46,0,0,1-.55.6,1.82,1.82,0,0,1-.88.2,1.68,1.68,0,0,1-1.18-.4,1.8,1.8,0,0,1-.42-1.36V76.76a.92.92,0,0,0-.25-.65.92.92,0,0,0-1.28,0,.88.88,0,0,0-.25.65v4.33a3.25,3.25,0,0,0,.33,1.48,2.38,2.38,0,0,0,.91,1,2.49,2.49,0,0,0,1.37.37,4,4,0,0,0,1.19-.17,2.47,2.47,0,0,0,.89-.48,2,2,0,0,0,.32-.33v.16a2.54,2.54,0,0,1-.23,1.2,1.33,1.33,0,0,1-.68.62,3.08,3.08,0,0,1-1.13.18,2.4,2.4,0,0,1-.89-.15,6.69,6.69,0,0,0-.63-.23.71.71,0,0,0-.62,0,.89.89,0,0,0-.43.58.72.72,0,0,0,.07.62,1.28,1.28,0,0,0,.61.48,3.41,3.41,0,0,0,.88.22,7.21,7.21,0,0,0,1,.08,4.9,4.9,0,0,0,1.92-.36,3,3,0,0,0,1.38-1.16,4.07,4.07,0,0,0,.51-2.18v-6.3a.92.92,0,0,0-.25-.65A.87.87,0,0,0,344.55,75.85Z"/><path class="cls-2" d="M352.13,72.81a.91.91,0,0,0-.65.26.89.89,0,0,0-.26.65v9.16a.89.89,0,0,0,.26.65.84.84,0,0,0,.62.26.91.91,0,0,0,.65-.26.89.89,0,0,0,.26-.65V73.72a.92.92,0,0,0-.25-.65A.83.83,0,0,0,352.13,72.81Z"/><path class="cls-2" d="M365.48,80.21a.74.74,0,0,0,.28-.58,3.88,3.88,0,0,0-.3-1.51,4.23,4.23,0,0,0-.82-1.25,3.86,3.86,0,0,0-1.2-.85A3.36,3.36,0,0,0,362,75.7a3.61,3.61,0,0,0-1.85.51,3.78,3.78,0,0,0-1.42,1.44,4.53,4.53,0,0,0-.54,2.28,4.2,4.2,0,0,0,.49,2,3.71,3.71,0,0,0,1.43,1.43,4.38,4.38,0,0,0,2.19.53,4.2,4.2,0,0,0,1.44-.25,3.39,3.39,0,0,0,1.08-.57.91.91,0,0,0,.41-.73.75.75,0,0,0-.75-.74,1.16,1.16,0,0,0-.51.14l-.36.21a1.76,1.76,0,0,1-.53.22,3.36,3.36,0,0,1-.87.09A2.31,2.31,0,0,1,361.1,82a2.33,2.33,0,0,1-.86-.85,2.2,2.2,0,0,1-.27-.73h4.89A.93.93,0,0,0,365.48,80.21Zm-5-2.36a1.69,1.69,0,0,1,.67-.4,3.14,3.14,0,0,1,.83-.11,1.85,1.85,0,0,1,.87.2,1.9,1.9,0,0,1,.68.54,1.36,1.36,0,0,1,.3.77V79H360a1.87,1.87,0,0,1,.08-.34A1.93,1.93,0,0,1,360.51,77.85Z"/></g></g></svg>